# xmcd
#
# Track frame offsets:
#	150
#	14587
#	28619
#	44300
#	58632
#	70274
#	86947
#	101084
#	114997
#	127055
#	140817
#	154898
#	168758
#	185627
#	200663
#	212281
#	230417
#	244102
#	257939
#	272519
#	289870
#	303030
#
# Disc length: 4209 seconds
#
# Revision: 0
# Processed by: cddbd v1.5.2PL0 Copyright (c) Steve Scherf et al.
# Submitted via: EZCDAudioConverter 4.0.5.1
#
DISCID=45106f16
DTITLE=ERG Music - NU Country Traxx Volume 242 US
DYEAR=2019
DGENRE=Country
TTITLE0=Jake Owen - Homemade
TTITLE1=Luke Combs - Beer Never Broke My Heart
TTITLE2=Jon Pardi - Heartache Medication
TTITLE3=Keith Urban - We Were
TTITLE4=Toby Keith - That's Country Bro
TTITLE5=Randy Houser - No Stone Unturned
TTITLE6=Seaforth - Love That
TTITLE7=Jameson Rodgers - Some Girls
TTITLE8=Laine Hardy - Flame
TTITLE9=Chance McKinney - Backyard
TTITLE10=I Like Where This Is Going
TTITLE11=Raleigh Keegan - Don't Take Time
TTITLE12=Brinn Black - 72's
TTITLE13=Richard Schroder - Let's See How Far We Can Go
TTITLE14=Sam Shupak - Smooth Sailing
TTITLE15=Wes Hayden - She's Like Whiskey
TTITLE16=Matt Dylan - Strong
TTITLE17=Bailey Callahan - Home Made
TTITLE18=Emerson Drive - Country People
TTITLE19=Alyssa Lynn - Do It For A Boy
TTITLE20=Petric - Single Problem
TTITLE21=Stephen Martines - Alright
EXTD=
EXTT0=
EXTT1=
EXTT2=
EXTT3=
EXTT4=
EXTT5=
EXTT6=
EXTT7=
EXTT8=
EXTT9=
EXTT10=
EXTT11=
EXTT12=
EXTT13=
EXTT14=
EXTT15=
EXTT16=
EXTT17=
EXTT18=
EXTT19=
EXTT20=
EXTT21=
PLAYORDER=
